<?xml version="1.0" encoding="UTF-8" standalone="no"?>
<svg width="256px" height="256px" viewBox="0 0 256 256" version="1.1" xmlns="http://www.w3.org/2000/svg" xmlns:xlink="http://www.w3.org/1999/xlink">
    <defs>
        <linearGradient x1="0%" y1="0%" x2="100%" y2="100%" id="coinGradient">
            <stop stop-color="#21D4FD" offset="0%"></stop>
            <stop stop-color="#0075FF" offset="100%"></stop>
        </linearGradient>
        <linearGradient x1="0%" y1="0%" x2="100%" y2="100%" id="shineGradient">
            <stop stop-color="rgba(255,255,255,0.8)" offset="0%"></stop>
            <stop stop-color="rgba(255,255,255,0)" offset="100%"></stop>
        </linearGradient>
    </defs>
    <g stroke="none" stroke-width="1" fill="none" fill-rule="evenodd">
        <!-- Main coin circle -->
        <circle cx="128" cy="128" r="120" fill="url(#coinGradient)"></circle>
        
        <!-- Inner highlight -->
        <circle cx="128" cy="128" r="100" fill="#0063DB"></circle>
        
        <!-- Letter "C" -->
        <path d="M165.3,98.7c-4.4-6.9-10.4-12.3-18-16.1c-7.6-3.9-16.3-5.8-26.1-5.8c-9.8,0-18.6,1.9-26.2,5.8
        c-7.6,3.9-13.6,9.2-18,16.1c-4.4,6.9-6.6,14.7-6.6,23.4c0,8.8,2.2,16.6,6.6,23.5c4.4,6.9,10.4,12.3,18,16.1
        c7.6,3.8,16.3,5.8,26.2,5.8c9.8,0,18.6-1.9,26.1-5.8c7.6-3.8,13.6-9.2,18-16.1c4.4-6.9,6.6-14.7,6.6-23.5
        C171.9,113.4,169.7,105.6,165.3,98.7z M151.8,134.1c-2.9,4.7-6.9,8.4-11.9,11.1c-5,2.6-10.6,4-16.8,4
        c-6.2,0-11.8-1.3-16.9-4c-5-2.7-9-6.4-11.9-11.1c-2.9-4.7-4.4-10-4.4-15.9c0-5.9,1.5-11.2,4.4-15.9
        c2.9-4.7,6.9-8.4,11.9-11c5-2.6,10.6-4,16.9-4c6.2,0,11.8,1.3,16.8,4c5,2.6,9,6.3,11.9,11c2.9,4.7,4.4,10,4.4,15.9
        C156.2,124.2,154.7,129.4,151.8,134.1z" fill="white"></path>
        
        <!-- Shine effect -->
        <path d="M91.4,64.8C55.4,77.7,30,111.2,30,150c0,26.2,10.6,49.9,27.7,67.1c-14.6-16.6-23.5-38.4-23.5-62.3
        C34.2,113.4,57.5,77.9,91.4,64.8z" fill="url(#shineGradient)"></path>
        
        <!-- Edge highlight -->
        <circle cx="128" cy="128" r="120" stroke="rgba(255,255,255,0.2)" stroke-width="2" fill="none"></circle>
    </g>
</svg>