<svg xmlns="http://www.w3.org/2000/svg" width="220" height="220" viewBox="0 0 220 220" fill="none">
  <circle cx="110" cy="110" r="105" fill="#0078D4" stroke="white" stroke-width="10"/>
  <path d="M80 75C80 66.7157 86.7157 60 95 60H125C133.284 60 140 66.7157 140 75V145C140 153.284 133.284 160 125 160H95C86.7157 160 80 153.284 80 145V75Z" fill="white"/>
  <path d="M57 100C57 91.7157 63.7157 85 72 85H77C85.2843 85 92 91.7157 92 100V120C92 128.284 85.2843 135 77 135H72C63.7157 135 57 128.284 57 120V100Z" fill="#C7E0F4"/>
  <path d="M128 100C128 91.7157 134.716 85 143 85H148C156.284 85 163 91.7157 163 100V120C163 128.284 156.284 135 148 135H143C134.716 135 128 128.284 128 120V100Z" fill="#C7E0F4"/>
  <circle cx="85" cy="95" r="8" fill="#0078D4"/>
  <circle cx="135" cy="95" r="8" fill="#0078D4"/>
  <path d="M93 115H127V118C127 124.627 121.627 130 115 130H105C98.3726 130 93 124.627 93 118V115Z" fill="#0078D4"/>
  <circle cx="110" cy="110" r="105" stroke="white" stroke-width="10"/>
</svg>
